<svg fill="none" height="64" viewBox="0 0 64 64" width="64" xmlns="http://www.w3.org/2000/svg" xmlns:xlink="http://www.w3.org/1999/xlink">
  <linearGradient id="paint0_linear" gradientUnits="userSpaceOnUse" x1="0" x2="0" y1="0" y2="64">
    <stop offset="0" stop-color="#f970cb"/>
    <stop offset=".880208" stop-color="#f0a"/>
  </linearGradient>
  <mask id="mask0" height="57" maskUnits="userSpaceOnUse" width="44" x="0" y="7">
    <path d="m37.2453 7.9375c-12.3421 7.9464-37.2453 24.1206-37.2453 24.1206v31.9419h29.3022l14.5103-9.3855s-4.1792-.0785-6.9425-.6882c-4.253-.9386-10.3055-3.6159-13.0575-1.7388-.7662.9038-3.515 3.4697-4.4063 2.625-.5547-.5257-.6099-1.4055.1563-2.0625 1.691-1.45 2.4707-.9099 3.25-2.0938 1.6887-2.5653 2.7946-6.7364 4.4257-11.121 2.8189-7.5774 3.5389-12.1136 6.0355-19.8033 1.5008-4.6226 3.9716-11.7944 3.9716-11.7944z" fill="#c4c4c4"/>
  </mask>
  <path d="m0 0h64v64h-64z" fill="url(#paint0_linear)"/>
  <g mask="url(#mask0)">
    <path d="m-16.7121 42.9375 55.0234-35.82021 2.1262 3.25771-55.0234 35.8202z" fill="#d400ff"/>
    <path d="m-14.5859 46.1952 51.0222-33.2498 2.1262 3.2577-51.0222 33.2498z" fill="#5300ff"/>
    <path d="m-12.4597 49.4529 50.9441-33.2498-5.3767 8.1548-43.4412 28.3527z" fill="#0059ff"/>
    <path d="m-10.3336 52.7107 43.4413-28.3527 2.1262 3.2577-43.44126 28.3527z" fill="#00e0ff"/>
    <path d="m-8.20728 55.9683 43.44128-28.3526 2.1262 3.2577-43.44127 28.3526z" fill="#00ffb5"/>
    <path d="m-6.08112 59.226 43.44122-28.3526 2.1262 3.2577-43.44121 28.3526z" fill="#00e717"/>
    <path d="m-3.95493 62.4837 43.44123-28.3527 2.1262 3.2578-43.44122 28.3526z" fill="#00b300"/>
    <path d="m-1.82874 65.7415 43.44124-28.3527 2.1262 3.2577-43.441234 28.3527z" fill="#93ff00"/>
    <path d="m.297455 68.9992 43.441245-28.3527 2.1262 3.2578-43.44124 28.3526z" fill="#f7e100"/>
    <path d="m2.42368 72.2569 43.44122-28.3527 2.1262 3.2577-43.44122 28.3527z" fill="#ff6200"/>
    <path d="m4.54984 75.5146 43.44126-28.3527 2.1262 3.2577-43.44126 28.3527z" fill="#e30505"/>
  </g>
  <path d="m39.1419 55.9206c5.5013-.1382 8.3191-4.4213 8.7216-9.8097v-.0691c0-.2763-.2013-.4145-.4025-.4145l-.2684.1382c-2.5494 2.6942-5.1659 3.4541-7.7824 3.4541-3.0861 0-6.1722-1.0363-9.0571-1.0363-1.1405 0-2.281.2073-3.3544.6218 9.2583-9.3952 9.4596-27.1493 18.1812-39.65323.1342-.13816.1342-.27633.1342-.41449 0-.96715-2.281-1.65797-4.495-1.65797-1.7443 0-3.4887.41449-4.2266 1.45072-6.655 8.59487-8.3556 33.09037-15.1987 42.14017-2.4824.7599-3.5558 2.2797-3.5558 3.5232 0 .9672.6709 1.7271 1.7443 1.7271 2.6165 0 4.0254-2.8324 6.1052-2.8324h.0671c3.3545.0691 8.4897 2.8324 13.2531 2.8324z" fill="#fff"/>
</svg>